<svg width="51" height="50" viewBox="0 0 51 50" fill="none" xmlns="http://www.w3.org/2000/svg">
<path id="+" d="M25.557 0C28.2953 0 29.5503 1.26729 29.5503 4.14747V20.8525H46.7785C49.745 20.8525 51 22.0046 51 24.424C51 26.9585 49.745 27.9954 46.7785 27.9954H29.5503V45.8525C29.5503 48.7327 28.2953 50 25.557 50C22.8188 50 21.4497 48.7327 21.4497 45.8525V27.9954H4.22148C1.14094 27.9954 0 27.0737 0 24.424C0 22.0046 1.25503 20.8525 4.22148 20.8525H21.4497V4.14747C21.4497 1.26729 22.7047 0 25.557 0Z" fill="#CDCDCD"/>
</svg>
