<svg width="18" height="18" viewBox="0 0 18 18" fill="none" xmlns="http://www.w3.org/2000/svg">
<path d="M17.1747 15.4502C17.4037 15.6792 17.5323 15.9897 17.5323 16.3135C17.5323 16.6373 17.4037 16.9478 17.1747 17.1768C16.9458 17.4057 16.6352 17.5344 16.3114 17.5344C15.9876 17.5344 15.6771 17.4057 15.4482 17.1768L8.99996 10.7266L2.54972 17.1748C2.32076 17.4037 2.01023 17.5323 1.68644 17.5323C1.36265 17.5323 1.05212 17.4037 0.823159 17.1748C0.594203 16.9458 0.465576 16.6353 0.465576 16.3115C0.465576 15.9877 0.594203 15.6772 0.823159 15.4482L7.27339 9L0.82519 2.54976C0.596234 2.3208 0.467607 2.01027 0.467607 1.68648C0.467607 1.36269 0.596234 1.05215 0.82519 0.823198C1.05415 0.594242 1.36468 0.465615 1.68847 0.465615C2.01226 0.465615 2.3228 0.594242 2.55175 0.823198L8.99996 7.27343L15.4502 0.822182C15.6791 0.593226 15.9897 0.4646 16.3135 0.4646C16.6373 0.4646 16.9478 0.593226 17.1768 0.822182C17.4057 1.05114 17.5343 1.36167 17.5343 1.68546C17.5343 2.00926 17.4057 2.31979 17.1768 2.54875L10.7265 9L17.1747 15.4502Z" fill="black"/>
</svg>
