<svg width="617" height="224" viewBox="0 0 617 224" fill="none" xmlns="http://www.w3.org/2000/svg">
<path d="M236.917 194.417C231.236 191.671 226.357 187.51 222.75 182.333H179.625V119.833H273.375V131.604C277.592 134.568 281.14 138.382 283.792 142.802V119.833C283.792 117.071 282.694 114.421 280.741 112.468C278.787 110.514 276.138 109.417 273.375 109.417H179.625C176.862 109.417 174.213 110.514 172.259 112.468C170.306 114.421 169.208 117.071 169.208 119.833V182.333C169.208 185.096 170.306 187.745 172.259 189.699C174.213 191.652 176.862 192.75 179.625 192.75H216.083V203.167H205.667V213.583H247.333V203.167H236.917V194.417Z" fill="#CFDDC3"/>
<path d="M252.542 130.25C246.361 130.25 240.319 132.083 235.18 135.517C230.041 138.95 226.036 143.831 223.67 149.541C221.305 155.251 220.686 161.535 221.892 167.597C223.098 173.658 226.074 179.227 230.445 183.597C234.815 187.967 240.383 190.944 246.445 192.15C252.507 193.355 258.79 192.736 264.501 190.371C270.211 188.006 275.091 184.001 278.525 178.862C281.959 173.723 283.792 167.681 283.792 161.5C283.792 153.212 280.499 145.263 274.639 139.403C268.778 133.542 260.83 130.25 252.542 130.25ZM252.542 169.312C250.997 169.312 249.486 168.854 248.201 167.996C246.917 167.137 245.915 165.917 245.324 164.49C244.733 163.062 244.578 161.491 244.879 159.976C245.181 158.46 245.925 157.068 247.017 155.976C248.11 154.883 249.502 154.139 251.018 153.838C252.533 153.536 254.104 153.691 255.531 154.282C256.959 154.873 258.179 155.875 259.038 157.16C259.896 158.444 260.354 159.955 260.354 161.5C260.354 163.572 259.531 165.559 258.066 167.024C256.601 168.489 254.614 169.312 252.542 169.312Z" fill="#CFDDC3"/>
<path d="M583.146 151.5C581.074 151.5 579.087 150.677 577.622 149.212C576.156 147.747 575.333 145.76 575.333 143.688C575.333 141.615 576.156 139.628 577.622 138.163C579.087 136.698 581.074 135.875 583.146 135.875C585.218 135.875 587.205 136.698 588.67 138.163C590.135 139.628 590.958 141.615 590.958 143.688C590.958 145.76 590.135 147.747 588.67 149.212C587.205 150.677 585.218 151.5 583.146 151.5ZM567.521 130.667C565.449 130.667 563.462 129.844 561.997 128.378C560.531 126.913 559.708 124.926 559.708 122.854C559.708 120.782 560.531 118.795 561.997 117.33C563.462 115.865 565.449 115.042 567.521 115.042C569.593 115.042 571.58 115.865 573.045 117.33C574.51 118.795 575.333 120.782 575.333 122.854C575.333 124.926 574.51 126.913 573.045 128.378C571.58 129.844 569.593 130.667 567.521 130.667ZM541.479 130.667C539.407 130.667 537.42 129.844 535.955 128.378C534.49 126.913 533.667 124.926 533.667 122.854C533.667 120.782 534.49 118.795 535.955 117.33C537.42 115.865 539.407 115.042 541.479 115.042C543.551 115.042 545.538 115.865 547.003 117.33C548.469 118.795 549.292 120.782 549.292 122.854C549.292 124.926 548.469 126.913 547.003 128.378C545.538 129.844 543.551 130.667 541.479 130.667ZM525.854 151.5C523.782 151.5 521.795 150.677 520.33 149.212C518.865 147.747 518.042 145.76 518.042 143.688C518.042 141.615 518.865 139.628 520.33 138.163C521.795 136.698 523.782 135.875 525.854 135.875C527.926 135.875 529.913 136.698 531.378 138.163C532.844 139.628 533.667 141.615 533.667 143.688C533.667 145.76 532.844 147.747 531.378 149.212C529.913 150.677 527.926 151.5 525.854 151.5ZM554.5 104.625C542.068 104.625 530.145 109.564 521.354 118.354C512.564 127.145 507.625 139.068 507.625 151.5C507.625 163.932 512.564 175.855 521.354 184.646C530.145 193.436 542.068 198.375 554.5 198.375C556.572 198.375 558.559 197.552 560.024 196.087C561.489 194.622 562.312 192.635 562.312 190.562C562.312 188.531 561.531 186.708 560.281 185.354C559.083 183.948 558.302 182.125 558.302 180.146C558.302 178.074 559.125 176.087 560.59 174.622C562.055 173.156 564.043 172.333 566.115 172.333H575.333C582.24 172.333 588.864 169.59 593.748 164.706C598.631 159.822 601.375 153.198 601.375 146.292C601.375 123.271 580.385 104.625 554.5 104.625Z" fill="#CFDDC3"/>
<path d="M386.594 27.3438C382.219 27.3438 378.133 28.5391 374.641 30.6251C374.264 26.6187 372.982 22.7504 370.891 19.3126C375.956 16.783 381.556 15.514 387.217 15.6136C392.878 15.7132 398.43 17.1784 403.403 19.8846C408.376 22.5907 412.622 26.4578 415.779 31.157C418.937 35.8561 420.913 41.2484 421.539 46.8751H431.523C439.07 46.8751 445.195 53.0001 445.195 60.5469V95.7032C445.195 97.4993 444.841 99.2777 444.154 100.937C443.466 102.596 442.459 104.104 441.188 105.373C439.918 106.643 438.41 107.65 436.75 108.337C435.09 109.023 433.312 109.376 431.516 109.375H396.359C392.733 109.375 389.256 107.935 386.692 105.371C384.128 102.807 382.688 99.3292 382.688 95.7032V85.7266C379.979 85.4261 377.315 84.81 374.75 83.8907C374.828 82.0469 374.875 80.1251 374.875 78.1251V77.5001C374.875 75.6251 374.875 73.4141 374.797 71.0391C377.232 72.4651 379.905 73.4366 382.688 73.9063V60.5469C382.688 53.0001 388.813 46.8751 396.359 46.8751H409.711C408.788 41.4125 405.959 36.4536 401.727 32.8782C397.495 29.3028 392.134 27.342 386.594 27.3438ZM420.883 58.5938C419.406 65.0505 416.139 70.9598 411.456 75.6432C406.772 80.3266 400.863 83.594 394.406 85.0704V95.7032C394.406 96.7813 395.281 97.6563 396.359 97.6563H431.516C432.034 97.6563 432.53 97.4505 432.897 97.0843C433.263 96.718 433.469 96.2212 433.469 95.7032V60.5469C433.469 60.0289 433.263 59.5321 432.897 59.1659C432.53 58.7996 432.034 58.5938 431.516 58.5938H420.883ZM408.695 58.5938H396.359C395.841 58.5938 395.345 58.7996 394.978 59.1659C394.612 59.5321 394.406 60.0289 394.406 60.5469V72.8907C397.703 71.7219 400.697 69.8318 403.171 67.3584C405.644 64.885 407.527 61.8907 408.695 58.5938ZM355.977 8.78912C356.625 9.35632 357.068 10.122 357.236 10.9669C357.404 11.8119 357.288 12.6887 356.906 13.461C356.84 13.6896 356.806 13.9262 356.805 14.1641C356.805 14.6563 356.93 15.5938 358.109 16.7657C358.68 17.336 359.117 17.7422 359.594 18.1876C359.984 18.5469 360.398 18.9219 360.922 19.4376C361.938 20.4063 363.008 21.5469 363.969 22.9766C365.961 25.9688 367.063 29.711 367.063 35.1563C367.063 41.6563 364.719 47.211 361.031 50.7188C363.313 53.0313 364.641 56.0547 365.461 59.0782C367.063 64.9532 367.063 72.2188 367.063 77.836V78.1251C367.063 94.2032 364.055 103.75 360.648 109.43C359.362 111.666 357.672 113.645 355.664 115.266C354.869 115.886 354.004 116.41 353.086 116.828C353.086 116.828 352.094 117.188 351.438 117.188C350.874 117.143 350.32 117.022 349.789 116.828C348.871 116.41 348.006 115.886 347.211 115.266C345.203 113.645 343.513 111.666 342.227 109.43C338.82 103.758 335.812 94.2032 335.812 78.1251V77.8438C335.812 72.2188 335.813 64.961 337.414 59.0704C338.234 56.0547 339.562 53.0313 341.844 50.711C338.156 47.2188 335.812 41.6563 335.812 35.1563C335.812 32.6094 336.492 29.5704 337.43 26.7657C338.367 23.9532 339.68 21.0469 341.195 18.7032C343 15.6563 345.539 13.1016 347.508 11.3829C348.587 10.4336 349.714 9.53926 350.883 8.70318L351.117 8.54693L351.188 8.49224L351.211 8.47662L351.227 8.4688C351.943 7.99128 352.797 7.7638 353.656 7.82172C354.515 7.87965 355.331 8.21973 355.977 8.78912Z" fill="#CFDDC3"/>
<g clip-path="url(#clip0_129_194)">
<path fill-rule="evenodd" clip-rule="evenodd" d="M27.6429 5.1518L80.4107 5.12502V25.6875L27.6429 25.7143C25.2595 25.717 22.9379 24.9567 21.0179 23.5447L12.4643 17.2322C12.1837 17.0246 11.9556 16.7541 11.7985 16.4424C11.6413 16.1308 11.5594 15.7866 11.5594 15.4375C11.5594 15.0885 11.6413 14.7443 11.7985 14.4326C11.9556 14.1209 12.1837 13.8504 12.4643 13.6429L21.0268 7.32145C22.9408 5.90984 25.2557 5.14656 27.6339 5.14287L27.6429 5.1518ZM102.134 25.6697L91.5714 25.6786V5.11609H102.17C107.83 5.20537 112.161 10.2322 112.161 15.3839C112.161 20.5447 107.83 25.5804 102.17 25.6697H102.134ZM49.1786 46.2947C52.1696 47.4911 54.7143 48.8036 56.9196 50.1072V125C53.5173 122.443 49.7953 120.342 45.8482 118.75C39.2857 116.125 29.8214 113.955 15.3839 113.955C14.1999 113.955 13.0644 113.485 12.2272 112.648C11.39 111.811 10.9196 110.675 10.9196 109.491V45.3125C10.9196 44.1285 11.39 42.993 12.2272 42.1558C13.0644 41.3186 14.1999 40.8482 15.3839 40.8482C30.7411 40.8482 41.3661 43.1607 49.1786 46.2947ZM79.1429 118.75C74.3214 120.688 70.9375 122.911 68.0714 124.991V50.1072C70.2768 48.8036 72.8304 47.4911 75.8214 46.2947C83.6339 43.1607 94.2589 40.8482 109.616 40.8482C110.8 40.8482 111.936 41.3186 112.773 42.1558C113.61 42.993 114.08 44.1285 114.08 45.3125V109.491C114.08 110.675 113.61 111.811 112.773 112.648C111.936 113.485 110.8 113.955 109.616 113.955C95.1786 113.955 85.7143 116.116 79.1429 118.75Z" fill="#CFDDC3"/>
</g>
<defs>
<clipPath id="clip0_129_194">
<rect width="125" height="125" fill="white"/>
</clipPath>
</defs>
</svg>
