<svg width="77" height="78" viewBox="0 0 77 78" fill="none" xmlns="http://www.w3.org/2000/svg">
<path d="M61.9208 54.8325C63.7817 51.5921 64.9687 47.6779 63.5571 43.1221C61.8567 37.6037 57.0121 33.3367 51.2371 32.7912C49.0955 32.5626 46.93 32.8163 44.8992 33.5336C42.8684 34.2509 41.024 35.4136 39.5011 36.9365C37.9782 38.4594 36.8154 40.3039 36.0982 42.3346C35.3809 44.3654 35.1272 46.5309 35.3558 48.6725C35.9333 54.4154 40.1683 59.2921 45.6867 60.9925C50.2746 62.4042 54.1567 61.2171 57.3971 59.3562L65.4179 67.3771C66.6692 68.6283 68.6583 68.6283 69.9096 67.3771C70.2068 67.0834 70.4428 66.7337 70.6038 66.3482C70.7649 65.9627 70.8478 65.549 70.8478 65.1312C70.8478 64.7134 70.7649 64.2998 70.6038 63.9143C70.4428 63.5287 70.2068 63.179 69.9096 62.8854L61.9208 54.8325ZM49.7292 55.1533C45.2375 55.1533 41.7083 51.6242 41.7083 47.1325C41.7083 42.6408 45.2375 39.1117 49.7292 39.1117C54.2208 39.1117 57.75 42.6408 57.75 47.1325C57.75 51.6242 54.2208 55.1533 49.7292 55.1533ZM38.5 64.7783V71.195C20.79 71.195 6.41666 56.8217 6.41666 39.1117C6.41666 21.4017 20.79 7.02832 38.5 7.02832C54.0283 7.02832 66.9579 18.065 69.9417 32.695H63.3004C62.2997 28.8188 60.4063 25.2304 57.7713 22.2166C55.1363 19.2028 51.8329 16.8472 48.125 15.3379V16.6533C48.125 20.1825 45.2375 23.07 41.7083 23.07H35.2917V29.4867C35.2917 31.2512 33.8479 32.695 32.0833 32.695H25.6667V39.1117H32.0833V48.7367H28.875L13.5071 33.3687C13.09 35.2296 12.8333 37.1225 12.8333 39.1117C12.8333 53.2604 24.3512 64.7783 38.5 64.7783Z" fill="url(#paint0_linear_131_267)"/>
<defs>
<linearGradient id="paint0_linear_131_267" x1="38.6322" y1="7.02832" x2="38.6322" y2="71.195" gradientUnits="userSpaceOnUse">
<stop stop-color="#87AB69"/>
<stop offset="1" stop-color="#CFDDC3"/>
</linearGradient>
</defs>
</svg>
