<svg width="77" height="78" viewBox="0 0 77 78" fill="none" xmlns="http://www.w3.org/2000/svg">
<path d="M11.2292 61.6202C12.5055 61.6202 13.7296 62.1272 14.6321 63.0297C15.5347 63.9323 16.0417 65.1563 16.0417 66.4327C16.0417 67.709 15.5347 68.9331 14.6321 69.8356C13.7296 70.7382 12.5055 71.2452 11.2292 71.2452C9.95283 71.2452 8.72875 70.7382 7.82624 69.8356C6.92372 68.9331 6.41669 67.709 6.41669 66.4327C6.41669 65.1563 6.92372 63.9323 7.82624 63.0297C8.72875 62.1272 9.95283 61.6202 11.2292 61.6202ZM27.2709 51.9952C29.3981 51.9952 31.4382 52.8402 32.9424 54.3444C34.4466 55.8486 35.2917 57.8888 35.2917 60.016C35.2917 62.1433 34.4466 64.1834 32.9424 65.6876C31.4382 67.1918 29.3981 68.0369 27.2709 68.0369C25.1436 68.0369 23.1035 67.1918 21.5993 65.6876C20.0951 64.1834 19.25 62.1433 19.25 60.016C19.25 57.8888 20.0951 55.8486 21.5993 54.3444C23.1035 52.8402 25.1436 51.9952 27.2709 51.9952ZM46.5209 48.7869C42.7029 48.7869 39.2379 47.1827 36.8959 44.4556C34.5538 47.1827 31.0888 48.7869 27.2709 48.7869C20.9825 48.7869 15.7529 44.2631 14.6621 38.3277C12.2392 37.3907 10.1557 35.7438 8.68441 33.6028C7.21316 31.4618 6.42276 28.9263 6.41669 26.3285C6.41669 22.9249 7.76877 19.6607 10.1755 17.254C12.5822 14.8473 15.8464 13.4952 19.25 13.4952C20.0842 13.4952 20.8542 13.5914 21.7204 13.7198C24.0625 11.6023 27.1104 10.2869 30.4792 10.2869C34.2971 10.2869 37.7621 11.891 40.1042 14.6181C42.4463 11.891 45.9113 10.2869 49.7292 10.2869C56.0175 10.2869 61.2471 14.8106 62.3379 20.746C64.7609 21.683 66.8444 23.3299 68.3156 25.4709C69.7869 27.612 70.5773 30.1474 70.5834 32.7452C70.5834 36.1488 69.2313 39.413 66.8246 41.8197C64.4178 44.2264 61.1536 45.5785 57.75 45.5785L55.2796 45.3539C52.9375 47.4714 49.8896 48.7869 46.5209 48.7869Z" fill="url(#paint0_linear_131_265)"/>
<defs>
<linearGradient id="paint0_linear_131_265" x1="38.5" y1="10.2869" x2="38.5" y2="71.2452" gradientUnits="userSpaceOnUse">
<stop stop-color="#87AB69"/>
<stop offset="1" stop-color="#CFDDC3"/>
</linearGradient>
</defs>
</svg>
