<svg width="77" height="78" viewBox="0 0 77 78" fill="none" xmlns="http://www.w3.org/2000/svg">
<path d="M28.875 71.162C28.0241 71.162 27.2081 70.824 26.6064 70.2223C26.0047 69.6207 25.6667 68.8046 25.6667 67.9537V58.3287H12.8334C11.1315 58.3287 9.49944 57.6527 8.29608 56.4493C7.09273 55.2459 6.41669 53.6138 6.41669 51.912V13.412C6.41669 11.7102 7.09273 10.0781 8.29608 8.87476C9.49944 7.6714 11.1315 6.99536 12.8334 6.99536H64.1667C65.8685 6.99536 67.5006 7.6714 68.704 8.87476C69.9073 10.0781 70.5834 11.7102 70.5834 13.412V51.912C70.5834 53.6138 69.9073 55.2459 68.704 56.4493C67.5006 57.6527 65.8685 58.3287 64.1667 58.3287H44.5959L32.725 70.2316C32.0834 70.8412 31.2813 71.162 30.4792 71.162H28.875ZM51.3334 45.4954V42.287C51.3334 38.0199 42.7671 35.8704 38.5 35.8704C34.2329 35.8704 25.6667 38.0199 25.6667 42.287V45.4954H51.3334ZM38.5 19.8287C36.7982 19.8287 35.1661 20.5047 33.9628 21.7081C32.7594 22.9115 32.0834 24.5436 32.0834 26.2454C32.0834 27.9472 32.7594 29.5793 33.9628 30.7826C35.1661 31.986 36.7982 32.662 38.5 32.662C40.2018 32.662 41.8339 31.986 43.0373 30.7826C44.2406 29.5793 44.9167 27.9472 44.9167 26.2454C44.9167 24.5436 44.2406 22.9115 43.0373 21.7081C41.8339 20.5047 40.2018 19.8287 38.5 19.8287Z" fill="url(#paint0_linear_131_263)"/>
<defs>
<linearGradient id="paint0_linear_131_263" x1="38.5" y1="6.99536" x2="38.5" y2="71.162" gradientUnits="userSpaceOnUse">
<stop stop-color="#87AB69"/>
<stop offset="1" stop-color="#CFDDC3"/>
</linearGradient>
</defs>
</svg>
