<svg width="77" height="77" viewBox="0 0 77 77" fill="none" xmlns="http://www.w3.org/2000/svg">
<mask id="mask0_129_158" style="mask-type:luminance" maskUnits="userSpaceOnUse" x="3" y="3" width="71" height="70">
<path fill-rule="evenodd" clip-rule="evenodd" d="M58.1131 51.6254C58.6224 49.9283 60.4111 48.9653 62.1082 49.4746C65.1777 50.3957 67.8957 51.5561 69.9179 52.9904C71.8566 54.3655 73.7916 56.4694 73.7916 59.354C73.7916 62.2384 71.8572 64.3423 69.9183 65.7176C67.8961 67.1519 65.1782 68.3122 62.1084 69.2331C55.928 71.0872 47.582 72.1874 38.5 72.1874C29.4179 72.1874 21.072 71.0872 14.8916 69.2331C11.8218 68.3122 9.10381 67.1519 7.08167 65.7176C5.14279 64.3423 3.20831 62.2384 3.20831 59.354C3.20831 56.4699 5.1423 54.366 7.08133 52.9905C9.10347 51.5561 11.8216 50.3956 14.8919 49.4745C16.5891 48.9654 18.3777 49.9285 18.8869 51.6256C19.396 53.3228 18.4329 55.1114 16.7358 55.6206C13.999 56.4416 12.0186 57.3554 10.7939 58.2241C9.95102 58.822 9.70906 59.2124 9.64356 59.354C9.70908 59.4955 9.95108 59.8859 10.794 60.4838C12.0188 61.3526 13.9992 62.2663 16.7353 63.0871C22.1667 64.7164 29.8624 65.7707 38.5 65.7707C47.1376 65.7707 54.8333 64.7164 60.2646 63.0871C63.0007 62.2663 64.9811 61.3526 66.2059 60.4838C67.0486 59.8861 67.2907 59.4957 67.3563 59.3541C67.2907 59.2125 67.0485 58.822 66.2056 58.2242C64.9806 57.3553 62.9999 56.4415 60.264 55.6205C58.5668 55.1112 57.6039 53.3226 58.1131 51.6254Z" fill="white"/>
<path d="M38.5 56.1457C38.5 56.1457 59.3541 42.5167 59.3541 26.7605C59.3541 15.525 50.0179 6.4165 38.5 6.4165C26.9821 6.4165 17.6458 15.525 17.6458 26.7605C17.6458 42.5167 38.5 56.1457 38.5 56.1457Z" fill="white"/>
<path fill-rule="evenodd" clip-rule="evenodd" d="M14.4375 26.7606C14.4375 13.6788 25.2855 3.20825 38.5 3.20825C51.7145 3.20825 62.5625 13.6788 62.5625 26.7606C62.5625 35.9598 56.561 44.0977 51.2304 49.5951C48.4934 52.4178 45.7679 54.7126 43.7308 56.3005C42.7097 57.0964 41.8548 57.7199 41.2491 58.1485C40.9461 58.3628 40.7049 58.5288 40.536 58.6435C40.4515 58.7008 40.385 58.7454 40.3377 58.7768L40.2815 58.8141L40.2646 58.8253L40.2568 58.8303C40.256 58.8309 40.2552 58.8314 38.5 56.1458C36.7448 58.8314 36.744 58.8309 36.7432 58.8303L36.7354 58.8253L36.7185 58.8141L36.6623 58.7768C36.615 58.7454 36.5485 58.7008 36.464 58.6435C36.2951 58.5288 36.0539 58.3628 35.7509 58.1485C35.1452 57.7199 34.2903 57.0964 33.2692 56.3005C31.2321 54.7126 28.5066 52.4178 25.7696 49.5951C20.439 44.0977 14.4375 35.9598 14.4375 26.7606ZM38.5 56.1458L36.7448 58.8314C37.8112 59.5283 39.1888 59.5283 40.2552 58.8314L38.5 56.1458ZM38.5 52.217C38.8808 51.9352 39.313 51.6084 39.7861 51.2396C41.6591 49.7796 44.1472 47.6824 46.6238 45.1283C51.7203 39.8723 56.1458 33.3176 56.1458 26.7606C56.1458 17.3713 48.3213 9.62492 38.5 9.62492C28.6787 9.62492 20.8542 17.3713 20.8542 26.7606C20.8542 33.3176 25.2797 39.8723 30.3762 45.1283C32.8528 47.6824 35.3409 49.7796 37.2139 51.2396C37.687 51.6084 38.1192 51.9352 38.5 52.217Z" fill="white"/>
<path d="M38.5 35.2917C40.6272 35.2917 42.6673 34.4466 44.1715 32.9424C45.6757 31.4382 46.5208 29.3981 46.5208 27.2708C46.5208 25.1436 45.6757 23.1034 44.1715 21.5992C42.6673 20.095 40.6272 19.25 38.5 19.25C36.3727 19.25 34.3326 20.095 32.8284 21.5992C31.3242 23.1034 30.4791 25.1436 30.4791 27.2708C30.4791 29.3981 31.3242 31.4382 32.8284 32.9424C34.3326 34.4466 36.3727 35.2917 38.5 35.2917Z" fill="black"/>
<path fill-rule="evenodd" clip-rule="evenodd" d="M30.5598 19.3305C32.6656 17.2246 35.5218 16.0415 38.5 16.0415C41.4781 16.0415 44.3343 17.2246 46.4402 19.3305C48.5461 21.4363 49.7291 24.2925 49.7291 27.2707C49.7291 30.2488 48.5461 33.105 46.4402 35.2109C44.3343 37.3168 41.4781 38.4998 38.5 38.4998C35.5218 38.4998 32.6656 37.3168 30.5598 35.2109C28.4539 33.105 27.2708 30.2488 27.2708 27.2707C27.2708 24.2925 28.4539 21.4363 30.5598 19.3305ZM38.5 22.4582C37.2236 22.4582 35.9995 22.9652 35.097 23.8677C34.1945 24.7702 33.6875 25.9943 33.6875 27.2707C33.6875 28.547 34.1945 29.7711 35.097 30.6736C35.9995 31.5761 37.2236 32.0832 38.5 32.0832C39.7763 32.0832 41.0004 31.5761 41.9029 30.6736C42.8055 29.7711 43.3125 28.547 43.3125 27.2707C43.3125 25.9943 42.8055 24.7702 41.9029 23.8677C41.0004 22.9652 39.7763 22.4582 38.5 22.4582Z" fill="black"/>
</mask>
<g mask="url(#mask0_129_158)">
<path d="M0 0H77V77H0V0Z" fill="url(#paint0_linear_129_158)"/>
</g>
<defs>
<linearGradient id="paint0_linear_129_158" x1="38.5" y1="0" x2="38.5" y2="77" gradientUnits="userSpaceOnUse">
<stop stop-color="#87AB69"/>
<stop offset="1" stop-color="#CFDDC3"/>
</linearGradient>
</defs>
</svg>
