<svg width="31" height="31" viewBox="0 0 31 31" fill="none" xmlns="http://www.w3.org/2000/svg">
<path d="M25.6719 4.84375H5.32812C4.42917 4.84471 3.56731 5.20225 2.93165 5.8379C2.296 6.47356 1.93846 7.33542 1.9375 8.23438V22.7656C1.93846 23.6646 2.296 24.5264 2.93165 25.1621C3.56731 25.7978 4.42917 26.1553 5.32812 26.1562H25.6719C26.5708 26.1553 27.4327 25.7978 28.0683 25.1621C28.704 24.5264 29.0615 23.6646 29.0625 22.7656V8.23438C29.0615 7.33542 28.704 6.47356 28.0683 5.8379C27.4327 5.20225 26.5708 4.84471 25.6719 4.84375ZM24.8133 10.4522L16.0946 17.2335C15.9246 17.3656 15.7153 17.4374 15.5 17.4374C15.2847 17.4374 15.0754 17.3656 14.9054 17.2335L6.18668 10.4522C6.08424 10.3748 5.9982 10.2779 5.93355 10.167C5.86891 10.0561 5.82695 9.93347 5.81011 9.80621C5.79327 9.67895 5.80189 9.54962 5.83547 9.42572C5.86905 9.30183 5.92691 9.18584 6.0057 9.0845C6.0845 8.98316 6.18264 8.8985 6.29444 8.83542C6.40624 8.77234 6.52946 8.73211 6.65694 8.71706C6.78442 8.70201 6.91362 8.71245 7.03703 8.74777C7.16044 8.78309 7.2756 8.84258 7.37582 8.92279L15.5 15.2415L23.6242 8.92279C23.8273 8.76938 24.0827 8.7021 24.3351 8.73549C24.5874 8.76888 24.8165 8.90027 24.9728 9.10124C25.129 9.30221 25.1999 9.55661 25.1701 9.80942C25.1402 10.0622 25.0121 10.2931 24.8133 10.4522Z" fill="black"/>
</svg>
