<svg width="31" height="31" viewBox="0 0 31 31" fill="none" xmlns="http://www.w3.org/2000/svg">
<path fill-rule="evenodd" clip-rule="evenodd" d="M23.2604 3.85819C24.9809 2.87394 27.1251 4.11653 27.1251 6.10053V22.3161C27.1251 24.2988 24.9822 25.5427 23.2604 24.5584L18.0834 21.6005V6.81611L23.2604 3.85819ZM15.5001 7.74998H9.04174C7.44014 7.74837 5.89507 8.34193 4.70648 9.41542C3.51789 10.4889 2.77058 11.9658 2.60962 13.5593C2.44866 15.1528 2.88554 16.7492 3.83544 18.0387C4.78534 19.3282 6.1805 20.2188 7.75008 20.5375V25.1875C7.75008 26.0439 8.09029 26.8653 8.69588 27.4708C9.30146 28.0764 10.1228 28.4167 10.9792 28.4167C11.8357 28.4167 12.657 28.0764 13.2626 27.4708C13.8682 26.8653 14.2084 26.0439 14.2084 25.1875V20.6667H15.5001V7.74998Z" fill="black"/>
</svg>
