<svg width="24" height="24" viewBox="0 0 24 24" fill="none" xmlns="http://www.w3.org/2000/svg">
<path d="M19 14C19.7956 14 20.5587 14.3161 21.1213 14.8787C21.6839 15.4413 22 16.2044 22 17V17.715C22 21.292 17.79 24 12 24C6.21 24 2 21.433 2 17.715V17C2 16.2044 2.31607 15.4413 2.87868 14.8787C3.44129 14.3161 4.20435 14 5 14H19ZM12 0C12.7879 -1.17411e-08 13.5681 0.155195 14.2961 0.456723C15.0241 0.758251 15.6855 1.20021 16.2426 1.75736C16.7998 2.31451 17.2417 2.97595 17.5433 3.7039C17.8448 4.43185 18 5.21207 18 6C18 6.78793 17.8448 7.56815 17.5433 8.2961C17.2417 9.02405 16.7998 9.68549 16.2426 10.2426C15.6855 10.7998 15.0241 11.2417 14.2961 11.5433C13.5681 11.8448 12.7879 12 12 12C10.4087 12 8.88258 11.3679 7.75736 10.2426C6.63214 9.11742 6 7.5913 6 6C6 4.4087 6.63214 2.88258 7.75736 1.75736C8.88258 0.632141 10.4087 2.37122e-08 12 0Z" fill="#D9D9D9"/>
</svg>
