<svg width="31" height="31" viewBox="0 0 31 31" fill="none" xmlns="http://www.w3.org/2000/svg">
<path d="M23.6739 29.0624C22.492 29.0624 20.8318 28.635 18.3457 27.246C15.3226 25.5507 12.9843 23.9856 9.97755 20.9867C7.07857 18.0895 5.66783 16.2138 3.6934 12.6209C1.46285 8.56428 1.84308 6.43788 2.26812 5.52907C2.77429 4.44286 3.52144 3.79319 4.48716 3.14836C5.03569 2.78898 5.61616 2.48091 6.22123 2.22805C6.28177 2.20202 6.33808 2.17719 6.38834 2.15479C6.68804 2.01977 7.14214 1.81573 7.71734 2.0337C8.10121 2.1778 8.4439 2.47266 8.98035 3.00245C10.0805 4.08745 11.5839 6.50387 12.1385 7.69059C12.5108 8.49041 12.7573 9.01838 12.7579 9.61053C12.7579 10.3038 12.4091 10.8384 11.9859 11.4154C11.9066 11.5238 11.8279 11.6273 11.7516 11.7279C11.2908 12.3333 11.1897 12.5083 11.2563 12.8207C11.3913 13.4486 12.3982 15.3177 14.053 16.9688C15.7077 18.6199 17.5229 19.5632 18.1532 19.6976C18.4789 19.7673 18.6576 19.6619 19.2824 19.1848C19.372 19.1164 19.464 19.0456 19.5603 18.9747C20.2057 18.4946 20.7155 18.1549 21.3925 18.1549H21.3961C21.9852 18.1549 22.4896 18.4104 23.3251 18.8318C24.415 19.3816 26.904 20.8656 27.9957 21.9669C28.5267 22.5022 28.8228 22.8437 28.9675 23.2269C29.1854 23.8039 28.9802 24.2562 28.8464 24.5589C28.824 24.6092 28.7992 24.6643 28.7731 24.7255C28.5183 25.3294 28.2084 25.9087 27.8474 26.4559C27.2037 27.4186 26.5517 28.1639 25.463 28.6707C24.904 28.9351 24.2922 29.0691 23.6739 29.0624Z" fill="black"/>
</svg>
